<svg width="40" height="40" fill="none" xmlns="http://www.w3.org/2000/svg"><path d="M24.252 5.619h-8.504a2.88 2.88 0 00-2.877 2.875v3.128H9.37a5.007 5.007 0 00-5.002 5.002v12.755a5.007 5.007 0 005.002 5.002h21.26a5.008 5.008 0 005.002-5.002V16.623a5.007 5.007 0 00-5.002-5.001h-3.502V8.494a2.88 2.88 0 00-2.876-2.875zm-9.88 2.875c0-.759.617-1.375 1.376-1.375h8.504c.759 0 1.376.616 1.376 1.375v3.128H23.5v-1.277c0-.882-.718-1.6-1.6-1.6h-3.802c-.882 0-1.6.717-1.6 1.6v1.277h-2.127V8.494zM22 11.621h-3.966l.065-1.376 3.901.1v1.276zm8.63 21.26H9.37a3.506 3.506 0 01-3.502-3.502v-7.754h9.13v1.377a2.88 2.88 0 002.876 2.876h4.252A2.88 2.88 0 0025.002 23v-1.376h9.13v7.754a3.507 3.507 0 01-3.502 3.502zM16.498 21.625h7.004v1.377c0 .758-.617 1.376-1.376 1.376h-4.252A1.378 1.378 0 0116.497 23v-1.376zm17.634-5.002v3.502H5.868v-3.502a3.506 3.506 0 013.501-3.501h21.26a3.506 3.506 0 013.503 3.502z" fill="#2F80ED"/></svg>