<svg width="40" height="40" fill="none" xmlns="http://www.w3.org/2000/svg"><path d="M28.684 32.811a2.344 2.344 0 00-1.592 4.004 2.345 2.345 0 101.592-4.004zm.034 1.252a1.094 1.094 0 01.45 2.107 1.094 1.094 0 01-1.203-1.775c.198-.204.468-.323.753-.332zm-17.537-1.25a2.344 2.344 0 10.137 4.686 2.344 2.344 0 00-.136-4.686zm.04 1.248a1.095 1.095 0 11.058 2.189 1.095 1.095 0 01-.059-2.19zM30.26 20.002a7.234 7.234 0 00-.978-.8l.277-2.64 1.243.13-.366 3.493a4.407 4.407 0 00-.177-.183zm-20.695.183l-.367-3.492 1.243-.13.277 2.639a7.236 7.236 0 00-.977.8c-.06.06-.12.12-.176.183zm5.342-.992a5.981 5.981 0 00-4.292 1.704 3.125 3.125 0 002.183 5.359H17.5v2.236a9.682 9.682 0 00-5.042 3.279c.402.144.775.358 1.101.632a8.433 8.433 0 0112.881 0 3.62 3.62 0 011.101-.632 9.682 9.682 0 00-5.041-3.279v-2.236h4.702a3.125 3.125 0 002.183-5.36 5.983 5.983 0 00-6.055-1.403 10.625 10.625 0 01-6.66 0 5.983 5.983 0 00-1.763-.3zm-.022 1.25c.474.01.944.09 1.394.239a11.88 11.88 0 007.442 0 4.734 4.734 0 014.792 1.108 1.875 1.875 0 01-1.311 3.216H12.798a1.876 1.876 0 01-1.309-3.216 4.734 4.734 0 013.396-1.347zm3.865 5.813h2.5v1.987a9.686 9.686 0 00-2.5 0v-1.987zM26.89 3.92a5 5 0 012.806 6.078l-2.547 8.21a7.24 7.24 0 00-1.237-.23l2.59-8.35a3.75 3.75 0 00-2.104-4.559 16.246 16.246 0 00-12.796 0 3.75 3.75 0 00-2.104 4.558l2.59 8.35a7.24 7.24 0 00-1.237.232l-2.547-8.211A5 5 0 0113.11 3.92a17.497 17.497 0 0113.78 0z" fill="#2F80ED"/></svg>