<svg width="40" height="40" fill="none" xmlns="http://www.w3.org/2000/svg"><path d="M7.552 4.999A2.566 2.566 0 005 7.55v24.9a2.563 2.563 0 002.552 2.548h24.896A2.563 2.563 0 0035 32.45V7.55A2.566 2.566 0 0032.448 5H7.552zm0 1.67h24.896c.504 0 .885.377.885.882V32.45a.864.864 0 01-.885.882H7.552a.864.864 0 01-.885-.882V7.55c0-.504.381-.882.885-.882z" fill="#2F80ED"/><path d="M19.167 9.999a.834.834 0 00-.834.833v5a.834.834 0 00.834.833h10a.834.834 0 00.833-.833v-5a.833.833 0 00-.833-.833h-10zM20 11.665h8.333V15H20v-3.334zm-.833 6.666a.834.834 0 00-.834.834v5a.834.834 0 00.834.833h10a.834.834 0 00.833-.833v-5a.833.833 0 00-.833-.834h-10zM20 19.998h8.333v3.333H20v-3.333z" fill="#2F80ED"/><path fill-rule="evenodd" clip-rule="evenodd" d="M10 11.665v1.667h5v-1.667h-5zm0 8.333v1.667h5V20h-5zm0 8.333v1.667h19.83v-1.667H10z" fill="#2F80ED"/></svg>