<svg width="40" height="40" fill="none" xmlns="http://www.w3.org/2000/svg"><rect width="40" height="40" rx="4" fill="#2F80ED"/><path d="M23.842 28.992a5.789 5.789 0 01-4.121-1.706l-7.21-7.21a5.788 5.788 0 01-1.707-4.121 5.79 5.79 0 011.706-4.12c.694-.694 1.372-1.03 2.075-1.03 1.234 0 2.21 1.026 3.342 2.216.25.263.511.537.787.813.046.046.458.48.458 1.273 0 .79-.665 1.48-.742 1.555a2.205 2.205 0 00-.372 2.617c.267.33 2.254 2.28 2.614 2.537.282.127.595.195.906.195.588 0 1.14-.23 1.556-.645.076-.075.764-.741 1.556-.741s1.226.411 1.273.458c.275.275.549.536.812.786 1.181 1.124 2.202 2.094 2.217 3.316.009.712-.328 1.4-1.03 2.101a5.789 5.789 0 01-4.12 1.706zm-9.257-16.988c-.369 0-.77.222-1.226.678a4.597 4.597 0 00-1.355 3.272 4.6 4.6 0 001.355 3.273l7.21 7.21a4.597 4.597 0 003.273 1.355 4.597 4.597 0 003.272-1.355c.461-.46.683-.866.678-1.237-.008-.717-.859-1.525-1.843-2.462-.27-.257-.552-.525-.834-.807-.002 0-.145-.107-.425-.107-.211 0-.548.233-.708.391a3.374 3.374 0 01-2.403.995c-.495 0-.993-.11-1.441-.32-.45-.21-2.95-2.716-3.108-2.993a3.407 3.407 0 01.552-4.084c.157-.16.39-.496.39-.708 0-.291-.118-.434-.122-.44-.267-.266-.535-.548-.792-.818-.941-.989-1.754-1.843-2.473-1.843z" fill="#fff"/></svg>