<svg width="44" height="34" fill="none" xmlns="http://www.w3.org/2000/svg"><path d="M9.5.5C4.263.5 0 4.763 0 10v14c0 5.237 4.263 9.5 9.5 9.5h25c5.237 0 9.5-4.263 9.5-9.5V10C44 4.763 39.737.5 34.5.5h-25zm0 3h25c3.627 0 6.5 2.873 6.5 6.5v14c0 3.627-2.873 6.5-6.5 6.5h-25A6.453 6.453 0 013 24V10c0-3.627 2.873-6.5 6.5-6.5zm8.016 4.922c-.752-.005-1.44.75-1.438 1.578v14a1.628 1.628 0 000 .156c.05.517.349.997.768 1.234.42.237.947.226 1.357-.03l11.016-7c.434-.275.72-.816.72-1.368 0-.552-.286-1.093-.72-1.367l-11.016-7c-.209-.13-.448-.2-.687-.203zm1.422 4.297L25.64 17l-6.703 4.266v-8.547z" fill="#fff"/></svg>