<svg width="40" height="40" fill="none" xmlns="http://www.w3.org/2000/svg"><circle cx="20" cy="20" r="19" stroke="#2F80ED" stroke-width="2"/><path d="M15.184 15.852c-.024-1.258.418-2.266 1.324-3.024.906-.758 2.062-1.137 3.469-1.137 1.539 0 2.734.395 3.585 1.184.852.781 1.278 1.875 1.278 3.281 0 1.008-.277 1.93-.832 2.766-.547.836-1.274 1.691-2.18 2.566-.414.422-.668.801-.762 1.137-.085.336-.128.86-.128 1.57h-2.31c.009-1.14.102-1.925.282-2.355.188-.438.68-1.016 1.477-1.735.773-.914 1.324-1.617 1.652-2.109.328-.492.492-1.086.492-1.781 0-.828-.222-1.465-.668-1.91-.437-.446-1.066-.668-1.886-.668-.711 0-1.317.195-1.817.586-.492.382-.738.949-.738 1.699h-2.203l-.035-.07zM18.605 29v-2.438h2.403V29h-2.402z" fill="#2F80ED"/></svg>