<svg width="32" height="32" fill="none" xmlns="http://www.w3.org/2000/svg"><path d="M16 10.4a.8.8 0 00-.8.8v8a.8.8 0 001.6 0v-8a.8.8 0 00-.8-.8z" fill="#2F80ED"/><path d="M25.586 10.746l2.18-2.18a.8.8 0 00-1.13-1.13l-2.182 2.178A12.744 12.744 0 0016.8 6.44V1.6h4a.8.8 0 000-1.6h-9.6a.8.8 0 000 1.6h4v4.84c-6.685.416-12 5.971-12 12.76C3.2 26.258 8.942 32 16 32c7.058 0 12.8-5.742 12.8-12.8 0-3.242-1.22-6.197-3.214-8.454zM16 30.4c-6.176 0-11.2-5.026-11.2-11.2C4.8 13.026 9.824 8 16 8c6.176 0 11.2 5.026 11.2 11.2 0 6.174-5.024 11.2-11.2 11.2z" fill="#2F80ED"/></svg>