<svg width="40" height="40" viewBox="0 0 40 40" fill="none" xmlns="http://www.w3.org/2000/svg">
<path d="M24.2516 5.61865H15.7476C14.162 5.61865 12.8712 6.90865 12.8712 8.49425V11.6219H9.3696C6.6112 11.6219 4.368 13.8655 4.368 16.6235V29.3794C4.368 32.1378 6.6116 34.3811 9.3696 34.3811H30.63C33.3884 34.3811 35.6324 32.1374 35.6324 29.3794V16.6235C35.6324 13.8651 33.3884 11.6219 30.63 11.6219H27.1276V8.49425C27.1272 6.90825 25.8368 5.61865 24.2516 5.61865ZM14.3712 8.49425C14.3712 7.73545 14.9888 7.11865 15.7476 7.11865H24.252C25.0108 7.11865 25.6276 7.73545 25.6276 8.49425V11.6219H23.5008V10.3451C23.5008 9.46265 22.7832 8.74465 21.9004 8.74465H18.0992C17.2168 8.74465 16.4988 9.46225 16.4988 10.3451V11.6219H14.372V8.49425H14.3712ZM22.0004 11.6215H18.0336L18.0988 10.2447L22.0004 10.3451V11.6215ZM30.6296 32.8811H9.3696C7.4388 32.8811 5.868 31.3098 5.868 29.3794V21.6251H14.9976V23.0015C14.9976 24.5871 16.288 25.8779 17.874 25.8779H22.1256C23.7112 25.8779 25.002 24.5875 25.002 23.0015V21.6251H34.1324V29.3794C34.1324 31.3098 32.5604 32.8811 30.6296 32.8811ZM16.4976 21.6251H23.502V23.0015C23.502 23.7603 22.8852 24.3779 22.1256 24.3779H17.8736C17.1148 24.3779 16.4972 23.7603 16.4972 23.0015V21.6251H16.4976ZM34.1324 16.6235V20.1251H5.8676V16.6235C5.8676 14.6927 7.4388 13.1219 9.3692 13.1219H30.6296C32.5604 13.1215 34.1324 14.6927 34.1324 16.6235Z" fill="#2F80ED"/>
</svg>
