<svg width="40" height="40" viewBox="0 0 40 40" fill="none" xmlns="http://www.w3.org/2000/svg">
<path d="M28.6839 32.811C28.0734 32.8282 27.4937 33.083 27.0682 33.5212C26.6428 33.9594 26.4052 34.5464 26.4061 35.1572C26.406 35.4651 26.4665 35.77 26.5843 36.0544C26.702 36.3389 26.8746 36.5973 27.0923 36.815C27.3099 37.0327 27.5683 37.2055 27.8527 37.3234C28.1372 37.4412 28.442 37.5019 28.7498 37.5019C29.0577 37.5019 29.3625 37.4412 29.647 37.3234C29.9314 37.2055 30.1898 37.0327 30.4074 36.815C30.6251 36.5973 30.7977 36.3389 30.9154 36.0544C31.0332 35.77 31.0937 35.4651 31.0936 35.1572C31.0941 34.8436 31.0316 34.5332 30.9098 34.2441C30.7881 33.9551 30.6096 33.6934 30.3849 33.4746C30.1602 33.2559 29.8939 33.0843 29.6017 32.9703C29.3095 32.8563 28.9974 32.8022 28.6839 32.811ZM28.7181 34.0635C28.8644 34.0592 29.01 34.0844 29.1464 34.1374C29.2828 34.1905 29.4071 34.2705 29.5121 34.3724C29.617 34.4744 29.7005 34.5964 29.7574 34.7312C29.8143 34.866 29.8436 35.0109 29.8436 35.1572C29.8439 35.301 29.8158 35.4435 29.761 35.5765C29.7061 35.7095 29.6256 35.8304 29.524 35.9322C29.4224 36.034 29.3018 36.1147 29.1689 36.1698C29.0361 36.2249 28.8937 36.2533 28.7498 36.2533C28.606 36.2533 28.4636 36.2249 28.3307 36.1698C28.1979 36.1147 28.0772 36.034 27.9756 35.9322C27.874 35.8304 27.7935 35.7095 27.7387 35.5765C27.6838 35.4435 27.6558 35.301 27.6561 35.1572C27.656 34.8726 27.7668 34.599 27.9651 34.3948C28.1634 34.1906 28.4335 34.0717 28.7181 34.0635Z" fill="#2F80ED"/>
<path d="M11.1815 32.813C10.5718 32.8308 9.99308 33.0856 9.56822 33.5232C9.14336 33.9609 8.90584 34.5469 8.9061 35.1568C8.90693 35.7778 9.15423 36.3733 9.59368 36.8121C10.0331 37.251 10.6288 37.4974 11.2498 37.4974C11.8709 37.4974 12.4666 37.251 12.906 36.8121C13.3455 36.3733 13.5928 35.7778 13.5936 35.1568C13.5937 34.8432 13.5309 34.5328 13.4089 34.2438C13.2869 33.9549 13.1081 33.6935 12.8831 33.4749C12.6582 33.2564 12.3917 33.0851 12.0994 32.9715C11.8071 32.8578 11.495 32.8039 11.1815 32.813ZM11.2205 34.0606C11.3668 34.0567 11.5123 34.0821 11.6486 34.1354C11.7849 34.1888 11.9091 34.2691 12.0138 34.3713C12.1185 34.4735 12.2016 34.5957 12.2583 34.7306C12.3149 34.8655 12.3439 35.0104 12.3435 35.1568C12.3436 35.3005 12.3153 35.4427 12.2604 35.5755C12.2055 35.7083 12.1249 35.829 12.0234 35.9306C11.9218 36.0322 11.8012 36.1128 11.6685 36.1678C11.5357 36.2228 11.3934 36.2511 11.2498 36.2511C11.1061 36.2511 10.9638 36.2228 10.8311 36.1678C10.6983 36.1128 10.5777 36.0322 10.4762 35.9306C10.3746 35.829 10.294 35.7083 10.2391 35.5755C10.1842 35.4427 10.1559 35.3005 10.156 35.1568C10.1553 34.8713 10.2662 34.5968 10.4651 34.3919C10.6639 34.1871 10.9351 34.0682 11.2205 34.0606Z" fill="#2F80ED"/>
<path d="M30.2591 20.0023C29.9574 19.7075 29.6304 19.4397 29.2819 19.2018L29.5593 16.5625L30.8025 16.6928L30.4355 20.1847C30.3785 20.1221 30.3197 20.0611 30.2592 20.0019L30.2591 20.0023Z" fill="#2F80ED"/>
<path d="M9.56451 20.1847L9.19751 16.6928L10.4407 16.5625L10.7181 19.2018C10.3696 19.4397 10.0426 19.7075 9.74086 20.0023C9.68032 20.0616 9.6215 20.1225 9.5645 20.1851L9.56451 20.1847Z" fill="#2F80ED"/>
<path d="M14.9071 19.1929C14.1145 19.1784 13.3269 19.3216 12.5901 19.6142C11.8533 19.9067 11.1819 20.3427 10.6151 20.8969C10.1713 21.331 9.86694 21.8875 9.74068 22.4953C9.61443 23.1031 9.67206 23.7346 9.90621 24.3095C10.1404 24.8844 10.5404 25.3766 11.0554 25.7232C11.5704 26.0698 12.1769 26.2553 12.7977 26.2558H17.4999V28.4922C15.5139 29.0223 13.7482 30.1706 12.4584 31.771C12.86 31.9147 13.2328 32.1288 13.5594 32.4033C14.351 31.4667 15.3373 30.714 16.4496 30.1977C17.562 29.6814 18.7735 29.4139 19.9998 29.4139C21.2262 29.4139 22.4377 29.6814 23.5501 30.1977C24.6624 30.714 25.6487 31.4667 26.4403 32.4033C26.7669 32.1288 27.1397 31.9147 27.5414 31.771C26.2515 30.1706 24.4858 29.0223 22.4999 28.4922V26.2558H27.202C27.8228 26.2553 28.4293 26.0698 28.9443 25.7232C29.4593 25.3766 29.8593 24.8844 30.0935 24.3095C30.3277 23.7346 30.3853 23.1031 30.259 22.4953C30.1328 21.8875 29.8284 21.331 29.3846 20.8969C28.6008 20.1308 27.6216 19.5947 26.5539 19.3472C25.4861 19.0996 24.3709 19.1501 23.3299 19.4931C21.1673 20.2069 18.8325 20.2069 16.6698 19.4931C16.1006 19.3052 15.5064 19.2039 14.9071 19.1926V19.1929ZM14.8851 20.4428C15.3591 20.4522 15.829 20.5328 16.2791 20.6818C18.6955 21.4791 21.3041 21.4791 23.7205 20.6818C24.5442 20.4097 25.4269 20.3691 26.272 20.5646C27.1172 20.7601 27.8924 21.1841 28.513 21.7903C28.7794 22.0508 28.962 22.3848 29.0378 22.7496C29.1135 23.1145 29.0788 23.4935 28.9381 23.8385C28.7974 24.1835 28.5571 24.4788 28.2479 24.6867C27.9387 24.8946 27.5746 25.0056 27.202 25.0056H12.7977C12.4253 25.0051 12.0615 24.8937 11.7526 24.6857C11.4438 24.4776 11.2039 24.1824 11.0635 23.8375C10.9231 23.4926 10.8887 23.1135 10.9644 22.7489C11.0402 22.3843 11.2229 22.0507 11.4891 21.7903C11.9376 21.3519 12.4688 21.0069 13.0518 20.7755C13.6348 20.5442 14.258 20.4311 14.8851 20.4426L14.8851 20.4428ZM18.7498 26.2558H21.2498V28.243C20.42 28.135 19.5796 28.135 18.7498 28.243V26.2558Z" fill="#2F80ED"/>
<path d="M26.8898 3.92003C28.0262 4.40685 28.9419 5.2974 29.4603 6.41981C29.9786 7.54222 30.0627 8.81684 29.6963 9.99762L27.1488 18.2089C26.744 18.096 26.3301 18.0185 25.9118 17.9774L28.5025 9.62737C28.7772 8.74178 28.7142 7.78586 28.3254 6.94404C27.9367 6.10223 27.2499 5.43425 26.3975 5.06914C24.3759 4.20308 22.1994 3.75653 20 3.75653C17.8006 3.75653 15.6241 4.20308 13.6025 5.06914C12.7501 5.43425 12.0633 6.10223 11.6746 6.94404C11.2858 7.78586 11.2228 8.74178 11.4975 9.62737L14.0882 17.9774C13.6699 18.0185 13.256 18.096 12.8512 18.2089L10.3037 9.99762C9.93732 8.81684 10.0214 7.54222 10.5397 6.41981C11.0581 5.2974 11.9738 4.40685 13.1102 3.92003C15.2875 2.98734 17.6314 2.50635 20 2.50635C22.3686 2.50635 24.7125 2.98734 26.8898 3.92003Z" fill="#2F80ED"/>
</svg>
