<svg width="40" height="40" viewBox="0 0 40 40" fill="none" xmlns="http://www.w3.org/2000/svg">
<path d="M7.55208 4.99854C6.1535 4.99854 5 6.15195 5 7.55062V32.4497C5 33.8484 6.1535 34.9985 7.55208 34.9985H32.4479C33.8465 34.9985 35 33.8484 35 32.4497V7.55062C35 6.15195 33.8465 4.99854 32.4479 4.99854H7.55208ZM7.55208 6.66846H32.4479C32.9519 6.66846 33.3333 7.04645 33.3333 7.55062V32.4497C33.3333 32.9539 32.9519 33.3319 32.4479 33.3319H7.55208C7.04806 33.3319 6.66667 32.9539 6.66667 32.4497V7.55062C6.66667 7.04645 7.04806 6.66846 7.55208 6.66846Z" fill="#2F80ED"/>
<path d="M19.1667 9.99854C18.9457 9.99856 18.7337 10.0864 18.5774 10.2427C18.4212 10.399 18.3334 10.6109 18.3333 10.8319V15.8319C18.3334 16.0529 18.4212 16.2648 18.5774 16.4211C18.7337 16.5773 18.9457 16.6652 19.1667 16.6652H29.1667C29.3877 16.6652 29.5996 16.5773 29.7559 16.4211C29.9122 16.2648 30 16.0529 30 15.8319V10.8319C30 10.6109 29.9122 10.399 29.7559 10.2427C29.5996 10.0864 29.3877 9.99856 29.1667 9.99854H19.1667ZM20 11.6652H28.3333V14.9985H20V11.6652Z" fill="#2F80ED"/>
<path d="M19.1667 18.3315C18.9457 18.3316 18.7337 18.4194 18.5774 18.5757C18.4212 18.732 18.3334 18.9439 18.3333 19.1649V24.1649C18.3334 24.3859 18.4212 24.5978 18.5774 24.7541C18.7337 24.9103 18.9457 24.9982 19.1667 24.9982H29.1667C29.3877 24.9982 29.5996 24.9103 29.7559 24.7541C29.9122 24.5978 30 24.3859 30 24.1649V19.1649C30 18.9439 29.9122 18.732 29.7559 18.5757C29.5996 18.4194 29.3877 18.3316 29.1667 18.3315H19.1667ZM20 19.9982H28.3333V23.3315H20V19.9982Z" fill="#2F80ED"/>
<path fill-rule="evenodd" clip-rule="evenodd" d="M10 11.665V13.3317H15V11.665H10Z" fill="#2F80ED"/>
<path fill-rule="evenodd" clip-rule="evenodd" d="M10 19.9985V21.6652H15V19.9985H10Z" fill="#2F80ED"/>
<path fill-rule="evenodd" clip-rule="evenodd" d="M10 28.3315V29.9982H29.8307V28.3315H10Z" fill="#2F80ED"/>
</svg>
