<svg width="40" height="40" viewBox="0 0 40 40" fill="none" xmlns="http://www.w3.org/2000/svg">
<path d="M32.44 25.3601L32.4 25.3201L29.4 23.4401C28.56 22.8401 27.64 22.6801 26.68 22.9601C25.56 23.2801 24.6 24.2801 24.12 25.5601C23.84 26.3601 23.36 26.6401 22.52 26.5201C19.44 26.1201 14.2 20.6001 13.88 17.4401C13.8 16.5601 14.08 16.0801 14.88 15.8401C16 15.4001 16.8 14.6001 17.12 13.6001C17.4 12.6001 17.2 11.5601 16.52 10.6001L14.64 7.60012L14.6 7.56012C13.68 6.32012 12.72 5.68012 11.56 5.60012C10.12 5.48012 8.56 6.28012 6.84 8.00012C2.72 12.1201 6.24 21.8801 12.16 27.8001C16.28 31.9201 22.28 34.9201 26.96 34.9201C28.88 34.9201 30.56 34.4001 31.8 33.2801C31.88 33.2401 31.96 33.2001 32 33.1201C33.72 31.4001 34.52 29.8401 34.4 28.4001C34.32 27.2401 33.68 26.2401 32.44 25.3601ZM30.96 31.8401C30.92 31.8801 30.84 31.9201 30.8 31.9601C27.64 35.1201 19.12 32.5201 13.24 26.6401C7.4 20.8001 4.84 12.2801 8 9.12012C9.36 7.76012 10.52 7.08012 11.48 7.16012C12.12 7.20012 12.72 7.64012 13.32 8.44012L15.2 11.4401L15.24 11.4801C15.64 12.0001 15.76 12.6001 15.6 13.1201C15.44 13.6401 15 14.0801 14.32 14.3201C12.88 14.8001 12.12 16.0001 12.28 17.6001C12.68 21.5201 18.48 27.6001 22.32 28.1201C22.48 28.1601 22.68 28.1601 22.84 28.1601C24.16 28.1601 25.16 27.4401 25.64 26.1601C25.96 25.3601 26.52 24.7201 27.16 24.5201C27.6 24.4001 28.04 24.4801 28.48 24.8001L28.52 24.8401L31.52 26.7201C32.36 27.3201 32.76 27.9201 32.8 28.5601C32.88 29.4001 32.24 30.5201 30.96 31.8401Z" fill="#2F80ED"/>
<path d="M20.44 5.12012C20 5.12012 19.64 5.48012 19.64 5.92012C19.64 6.36012 20 6.72012 20.44 6.72012C27.56 6.72012 33.36 12.5201 33.36 19.6401C33.36 20.0801 33.72 20.4401 34.16 20.4401C34.6 20.4401 34.96 20.0801 34.96 19.6401C34.96 11.6001 28.44 5.12012 20.44 5.12012Z" fill="#2F80ED"/>
<path d="M20.44 9.95986C25.76 9.95986 30.12 14.2799 30.12 19.6399C30.12 20.0799 30.48 20.4399 30.92 20.4399C31.36 20.4399 31.72 20.0799 31.72 19.6399C31.72 13.4399 26.68 8.35986 20.44 8.35986C20 8.35986 19.64 8.71986 19.64 9.15986C19.64 9.59986 20 9.95986 20.44 9.95986Z" fill="#2F80ED"/>
<path d="M20.44 13.2801C23.96 13.2801 26.8 16.1201 26.8 19.6001C26.8 20.0401 27.16 20.4001 27.6 20.4001C28.04 20.4001 28.4 20.0401 28.4 19.6001C28.4 15.2001 24.84 11.6401 20.44 11.6401C20 11.6401 19.64 12.0001 19.64 12.4401C19.64 12.9201 20 13.2801 20.44 13.2801Z" fill="#2F80ED"/>
</svg>
