<svg width="40" height="40" viewBox="0 0 40 40" fill="none" xmlns="http://www.w3.org/2000/svg">
<rect width="40" height="40" rx="4" fill="#2F80ED"/>
<path d="M23.8416 28.9925C22.2848 28.9925 20.8216 28.3865 19.7208 27.2857L12.5104 20.0753C11.4096 18.9749 10.8036 17.5113 10.8036 15.9549C10.8036 14.3985 11.4096 12.9349 12.5104 11.8345C13.2036 11.1413 13.882 10.8041 14.5848 10.8041C15.8188 10.8041 16.7956 11.8313 17.9272 13.0209C18.1776 13.2845 18.4384 13.5585 18.7136 13.8337C18.7604 13.8805 19.172 14.3149 19.172 15.1065C19.172 15.8977 18.5068 16.5861 18.4304 16.6621C17.7388 17.3537 17.5876 18.4261 18.0584 19.2793C18.3248 19.6097 20.3116 21.5597 20.672 21.8161C20.954 21.9433 21.2668 22.0105 21.5784 22.0105C22.1664 22.0105 22.7188 21.7817 23.1344 21.3661C23.21 21.2905 23.8984 20.6245 24.69 20.6245C25.4816 20.6245 25.9156 21.0361 25.9628 21.0829C26.238 21.3581 26.512 21.6185 26.7752 21.8689C27.9564 22.9929 28.9768 23.9629 28.992 25.1849C29.0008 25.8969 28.6644 26.5845 27.9624 27.2861C26.8616 28.3869 25.3984 28.9925 23.8416 28.9925ZM14.5848 12.0041C14.2164 12.0041 13.8156 12.2261 13.3592 12.6825C12.4852 13.5565 12.004 14.7185 12.004 15.9545C12.004 17.1905 12.4852 18.3525 13.3592 19.2265L20.5696 26.4373C21.4436 27.3113 22.6056 27.7925 23.842 27.7925C25.0784 27.7925 26.2404 27.3113 27.1144 26.4373C27.5752 25.9765 27.7972 25.5713 27.7924 25.1997C27.7836 24.4833 26.9332 23.6749 25.9488 22.7381C25.6784 22.4809 25.3968 22.2133 25.1148 21.9309C25.1152 21.9317 25.1156 21.9317 25.1152 21.9317C25.1128 21.9317 24.9696 21.8237 24.6904 21.8237C24.4788 21.8237 24.1424 22.0573 23.982 22.2153C23.3412 22.8561 22.4876 23.2097 21.5792 23.2097C21.0836 23.2097 20.5856 23.0993 20.138 22.8901C19.6888 22.6801 17.188 20.1741 17.03 19.8969C16.2752 18.5717 16.5028 16.8921 17.5824 15.8125C17.7388 15.6537 17.9724 15.3173 17.9724 15.1053C17.9724 14.8137 17.8544 14.6705 17.8496 14.6645C17.5828 14.3989 17.3152 14.1173 17.058 13.8473C16.1168 12.8585 15.304 12.0041 14.5848 12.0041Z" fill="white"/>
</svg>
