<svg width="44" height="34" viewBox="0 0 44 34" fill="none" xmlns="http://www.w3.org/2000/svg">
<path d="M9.5 0.5C4.26298 0.5 0 4.76298 0 10V24C0 29.237 4.26298 33.5 9.5 33.5H34.5C39.737 33.5 44 29.237 44 24V10C44 4.76298 39.737 0.5 34.5 0.5H9.5ZM9.5 3.5H34.5C38.1269 3.5 41 6.37309 41 10V24C41 27.6269 38.1269 30.5 34.5 30.5H9.5C5.87309 30.5 3 27.6269 3 24V10C3 6.37309 5.87309 3.5 9.5 3.5ZM17.5156 8.42188C16.7636 8.41687 16.0766 9.17113 16.0781 10V24C16.0756 24.052 16.0756 24.1042 16.0781 24.1562C16.1282 24.673 16.4267 25.1525 16.8461 25.3899C17.2654 25.6273 17.7929 25.6155 18.2031 25.3594L29.2188 18.3594C29.6534 18.0854 29.9383 17.5441 29.9383 16.9922C29.9383 16.4403 29.6534 15.899 29.2188 15.625L18.2031 8.625C17.9943 8.49515 17.7554 8.42456 17.5156 8.42188ZM18.9375 12.7188L25.6406 17L18.9375 21.2656V12.7188Z" fill="white"/>
</svg>
