<svg width="40" height="40" viewBox="0 0 40 40" fill="none" xmlns="http://www.w3.org/2000/svg">
<path d="M25.56 22.3198L29.64 18.7998C30.08 18.3998 30.24 17.7998 30.08 17.2398C29.88 16.6798 29.4 16.2798 28.8 16.2398L23.48 15.7998L21.4 10.8398C21.16 10.2798 20.64 9.95977 20.04 9.95977C19.44 9.95977 18.92 10.3198 18.68 10.8398L16.6 15.7998L11.28 16.2398C10.68 16.2798 10.2 16.6798 9.99997 17.2398C9.79997 17.7998 9.99997 18.3998 10.44 18.7998L14.52 22.2798L13.28 27.4798C13.16 28.0398 13.36 28.6398 13.84 28.9998C14.32 29.3598 14.96 29.3598 15.44 29.0798L20 26.2798L24.56 29.0798C24.8 29.2398 25.04 29.2798 25.32 29.2798C25.64 29.2798 25.92 29.1998 26.16 28.9998C26.64 28.6398 26.84 28.0398 26.72 27.4798L25.56 22.3198ZM24.44 21.1598C24.04 21.5198 23.84 22.0798 23.96 22.5998L25.12 27.5598L20.8 24.8798C20.56 24.7198 20.32 24.6798 20.04 24.6798C19.76 24.6798 19.52 24.7598 19.28 24.8798L14.92 27.5198L16.08 22.5598C16.2 22.0398 16.04 21.4798 15.6 21.1198L11.72 17.7998L16.8 17.3998C17.36 17.3598 17.8 16.9998 18.04 16.5198L20 11.7998L22 16.5198C22.2 17.0398 22.68 17.3598 23.24 17.3998L28.32 17.7998L24.44 21.1598Z" fill="#2F80ED"/>
<path d="M20.04 6.32C20.48 6.32 20.84 5.96 20.84 5.52V1.8C20.84 1.36 20.48 1 20.04 1C19.6 1 19.24 1.36 19.24 1.8V5.52C19.24 5.96 19.6 6.32 20.04 6.32Z" fill="#2F80ED"/>
<path d="M9.19998 10.2801C9.35998 10.4401 9.55998 10.5201 9.75998 10.5201C9.95998 10.5201 10.16 10.4401 10.32 10.2801C10.64 9.96012 10.64 9.44012 10.32 9.16012L7.71998 6.56012C7.39998 6.24012 6.87999 6.24012 6.59999 6.56012C6.27999 6.88012 6.27999 7.40012 6.59999 7.68012L9.19998 10.2801Z" fill="#2F80ED"/>
<path d="M5.52 19.1598H1.8C1.36 19.1598 1 19.5198 1 19.9598C1 20.3998 1.36 20.7598 1.8 20.7598H5.52C5.96 20.7598 6.32 20.3998 6.32 19.9598C6.32 19.5198 5.96 19.1598 5.52 19.1598Z" fill="#2F80ED"/>
<path d="M9.15997 29.64L6.55997 32.24C6.23997 32.56 6.23997 33.08 6.55997 33.36C6.71997 33.52 6.91997 33.6 7.11997 33.6C7.31997 33.6 7.51997 33.52 7.67997 33.36L10.28 30.76C10.6 30.44 10.6 29.92 10.28 29.64C9.95997 29.32 9.43997 29.32 9.15997 29.64Z" fill="#2F80ED"/>
<path d="M19.96 33.6799C19.52 33.6799 19.16 34.0399 19.16 34.4799V38.1999C19.16 38.6399 19.52 38.9999 19.96 38.9999C20.4 38.9999 20.76 38.6399 20.76 38.1999V34.4799C20.76 34.0399 20.4 33.6799 19.96 33.6799Z" fill="#2F80ED"/>
<path d="M30.8 29.7199C30.48 29.3999 29.96 29.3999 29.68 29.7199C29.36 30.0399 29.36 30.5599 29.68 30.8399L32.28 33.4399C32.44 33.5999 32.64 33.6799 32.84 33.6799C33.04 33.6799 33.24 33.5999 33.4 33.4399C33.72 33.1199 33.72 32.5999 33.4 32.3199L30.8 29.7199Z" fill="#2F80ED"/>
<path d="M38.2 19.2402H34.48C34.04 19.2402 33.68 19.6002 33.68 20.0402C33.68 20.4802 34.04 20.8402 34.48 20.8402H38.2C38.64 20.8402 39 20.4802 39 20.0402C39 19.6002 38.64 19.2402 38.2 19.2402Z" fill="#2F80ED"/>
<path d="M30.28 10.6C30.48 10.6 30.68 10.52 30.84 10.36L33.44 7.76C33.76 7.44 33.76 6.92 33.44 6.64C33.12 6.32 32.6 6.32 32.32 6.64L29.72 9.2C29.4 9.52 29.4 10.04 29.72 10.32C29.88 10.52 30.08 10.6 30.28 10.6Z" fill="#2F80ED"/>
</svg>
