<svg width="32" height="32" viewBox="0 0 32 32" fill="none" xmlns="http://www.w3.org/2000/svg">
<path d="M16 10.3999C15.5584 10.3999 15.2 10.7583 15.2 11.1999V19.1999C15.2 19.6415 15.5584 19.9999 16 19.9999C16.4416 19.9999 16.8 19.6415 16.8 19.1999V11.1999C16.8 10.7583 16.4416 10.3999 16 10.3999Z" fill="#2F80ED"/>
<path d="M25.5856 10.7456L27.7664 8.5664C28.0784 8.2544 28.0784 7.7472 27.7664 7.4352C27.4544 7.1232 26.9472 7.1232 26.6352 7.4352L24.4544 9.6144C22.384 7.7872 19.7264 6.624 16.8 6.44V1.6H20.8C21.2416 1.6 21.6 1.2416 21.6 0.8C21.6 0.3584 21.2416 0 20.8 0H11.2C10.7584 0 10.4 0.3584 10.4 0.8C10.4 1.2416 10.7584 1.6 11.2 1.6H15.2V6.44C8.5152 6.856 3.2 12.4112 3.2 19.2C3.2 26.2576 8.9424 32 16 32C23.0576 32 28.8 26.2576 28.8 19.2C28.8 15.9584 27.5792 13.0032 25.5856 10.7456ZM16 30.4C9.824 30.4 4.8 25.3744 4.8 19.2C4.8 13.0256 9.824 8 16 8C22.176 8 27.2 13.0256 27.2 19.2C27.2 25.3744 22.176 30.4 16 30.4Z" fill="#2F80ED"/>
</svg>
