<?xml version="1.0" encoding="utf-8"?><svg xmlns="http://www.w3.org/2000/svg" xmlns:xlink="http://www.w3.org/1999/xlink"><symbol fill="none" viewBox="0 0 40 40" id="case" xmlns="http://www.w3.org/2000/svg"><path d="M24.252 5.619h-8.504a2.88 2.88 0 00-2.877 2.875v3.128H9.37a5.007 5.007 0 00-5.002 5.002v12.755a5.007 5.007 0 005.002 5.002h21.26a5.008 5.008 0 005.002-5.002V16.623a5.007 5.007 0 00-5.002-5.001h-3.502V8.494a2.88 2.88 0 00-2.876-2.875zm-9.88 2.875c0-.759.617-1.375 1.376-1.375h8.504c.759 0 1.376.616 1.376 1.375v3.128H23.5v-1.277c0-.882-.718-1.6-1.6-1.6h-3.802c-.882 0-1.6.717-1.6 1.6v1.277h-2.127V8.494zM22 11.621h-3.966l.065-1.376 3.901.1v1.276zm8.63 21.26H9.37a3.506 3.506 0 01-3.502-3.502v-7.754h9.13v1.377a2.88 2.88 0 002.876 2.876h4.252A2.88 2.88 0 0025.002 23v-1.376h9.13v7.754a3.507 3.507 0 01-3.502 3.502zM16.498 21.625h7.004v1.377c0 .758-.617 1.376-1.376 1.376h-4.252A1.378 1.378 0 0116.497 23v-1.376zm17.634-5.002v3.502H5.868v-3.502a3.506 3.506 0 013.501-3.501h21.26c1.931 0 3.503 1.57 3.503 3.502z" fill="#2F80ED"/></symbol><symbol fill="none" viewBox="0 0 40 40" id="char" xmlns="http://www.w3.org/2000/svg"><path d="M28.684 32.811a2.344 2.344 0 00-1.592 4.004 2.345 2.345 0 101.592-4.004zm.034 1.252a1.094 1.094 0 01.45 2.107 1.094 1.094 0 01-1.203-1.775c.198-.204.468-.323.753-.332zM11.181 32.813a2.344 2.344 0 10.137 4.686 2.344 2.344 0 00-.136-4.686zm.04 1.248a1.095 1.095 0 11.058 2.189 1.095 1.095 0 01-.059-2.19zM30.26 20.002a7.234 7.234 0 00-.978-.8l.277-2.64 1.243.13-.366 3.493a4.407 4.407 0 00-.177-.183zM9.565 20.185l-.367-3.492 1.243-.13.277 2.639a7.236 7.236 0 00-.977.8c-.06.06-.12.12-.176.183zM14.907 19.193a5.981 5.981 0 00-4.292 1.704 3.125 3.125 0 002.183 5.359H17.5v2.236a9.682 9.682 0 00-5.042 3.279c.402.144.775.358 1.101.632a8.433 8.433 0 0112.881 0c.327-.274.7-.488 1.101-.632a9.682 9.682 0 00-5.041-3.279v-2.236h4.702a3.125 3.125 0 002.183-5.36 5.983 5.983 0 00-6.055-1.403 10.625 10.625 0 01-6.66 0 5.983 5.983 0 00-1.763-.3zm-.022 1.25c.474.01.944.09 1.394.239 2.416.797 5.025.797 7.442 0a4.734 4.734 0 014.792 1.108 1.875 1.875 0 01-1.311 3.216H12.798a1.876 1.876 0 01-1.309-3.216 4.734 4.734 0 013.396-1.347zm3.865 5.813h2.5v1.987a9.686 9.686 0 00-2.5 0v-1.987zM26.89 3.92a5 5 0 012.806 6.078l-2.547 8.21a7.24 7.24 0 00-1.237-.23l2.59-8.35a3.75 3.75 0 00-2.104-4.559 16.246 16.246 0 00-12.796 0 3.75 3.75 0 00-2.104 4.558l2.59 8.35a7.24 7.24 0 00-1.237.232l-2.547-8.211A5 5 0 0113.11 3.92a17.497 17.497 0 0113.78 0z" fill="#2F80ED"/></symbol><symbol fill="none" viewBox="0 0 40 40" id="form" xmlns="http://www.w3.org/2000/svg"><path d="M7.552 4.999A2.566 2.566 0 005 7.55V32.45a2.563 2.563 0 002.552 2.548h24.896A2.563 2.563 0 0035 32.45V7.55A2.566 2.566 0 0032.448 5H7.552zm0 1.67h24.896c.504 0 .885.377.885.882V32.45a.864.864 0 01-.885.882H7.552a.864.864 0 01-.885-.882V7.55c0-.504.381-.882.885-.882z" fill="#2F80ED"/><path d="M19.167 9.999a.834.834 0 00-.834.833v5a.834.834 0 00.834.833h10a.834.834 0 00.833-.833v-5a.833.833 0 00-.833-.833h-10zM20 11.665h8.333V15H20v-3.334zM19.167 18.331a.834.834 0 00-.834.834v5a.834.834 0 00.834.833h10a.834.834 0 00.833-.833v-5a.833.833 0 00-.833-.834h-10zM20 19.998h8.333v3.333H20v-3.333z" fill="#2F80ED"/><path fill-rule="evenodd" clip-rule="evenodd" d="M10 11.665v1.667h5v-1.667h-5zM10 19.998v1.667h5V20h-5zM10 28.331v1.667h19.83v-1.667H10z" fill="#2F80ED"/></symbol><symbol fill="none" viewBox="0 0 40 40" id="i-icon" xmlns="http://www.w3.org/2000/svg"><circle cx="20" cy="20" r="19" stroke="#000" stroke-width="2"/><path d="M17.094 29v-1.477l1.91-.328v-9.058l-1.91-.328V16.32h4.218v10.875l1.91.328V29h-6.128zm1.91-15.926V10.72h2.308v2.355h-2.308z" fill="#000"/></symbol><symbol fill="none" viewBox="0 0 41 9" id="line-left" xmlns="http://www.w3.org/2000/svg"><path d="M.67 4.5L5 8.83 9.33 4.5 5 .17.67 4.5zM5 5.25h36v-1.5H5v1.5z" fill="#2F80ED"/></symbol><symbol fill="none" viewBox="0 0 41 9" id="line-right" xmlns="http://www.w3.org/2000/svg"><path d="M40.33 4.5L36 .17 31.67 4.5 36 8.83l4.33-4.33zM0 5.25h36v-1.5H0v1.5z" fill="#2F80ED"/></symbol><symbol fill="none" viewBox="0 0 100 60" id="logo" xmlns="http://www.w3.org/2000/svg"><path fill-rule="evenodd" clip-rule="evenodd" d="M59.4 33.746c.03-2.09.002-4.2.002-6.292 0-1.524-.358-4.172 2.157-4.07 2.376.096 2.053 2.617 2.053 4.14 0 2.079-.021 4.17.002 6.248l2.357-.004c.02-2.078.002-4.166.002-6.245 0-1.514-.331-4.114 2.139-4.142 2.458-.028 2.074 2.608 2.074 4.212 0 2.053-.023 4.12.003 6.178l2.465-.006c.023-1.867.003-3.748.003-5.617 0-1.838.142-3.512-.7-4.913-1.305-2.166-5.247-2.977-7.138.187-.274-.244-.457-.824-1.175-1.327-1.71-1.195-4.23-.749-6.71-.749l.002 12.431 2.464-.03zM97.368 28.565c-.105 1.177-.486 2.164-1.107 2.732-1.725 1.576-5.75 1.182-5.183-4.605.207-2.122 1.558-4.06 4.019-3.367 1.927.542 2.489 2.826 2.272 5.24zm-8.83-.14c.235 3.414 2.646 5.987 6.326 5.63 3.796-.368 5.207-3.651 5.032-7.091-.4-7.858-12-7.817-11.359 1.462zM47.159 23.262c2.416-.453 3.597 1.59 3.718 3.772.112 2.033-.237 4.618-2.617 5.01-2.42.399-3.627-1.505-3.725-3.755-.109-2.466.445-4.617 2.624-5.027zm6.238 5.025c.526-6.466-5.895-8.919-9.572-5.508-.957.888-1.654 2.373-1.803 4.212-.305 3.776 1.688 6.713 4.995 7.06 2.15.227 3.939-.634 4.96-1.878.373-.455.618-.86.867-1.422.328-.741.479-1.558.553-2.464zM31.037 23.43c3.205-.234 5.134.745 5.26 3.885.132 3.272-1.37 4.572-4.513 4.572l-.483.002-.263-.012V23.43zm-2.413 10.33c2.054.124 5.557.203 7.317-.799 1.66-.944 2.88-2.621 2.877-5.299-.004-4.165-2.779-5.89-6.207-6.052-.987-.047-3.04-.122-3.988-.005l.001 12.156zM79.107 23.486h6.049c.024-.422.083-1.589-.04-1.9h-7.629c-.303-.002-.797-.104-.797.174v11.99l8.649.016.039-1.95h-6.251l-.004-3.382 5.735-.008v-1.87l-5.745-.005-.006-3.065z" fill="#000"/><path d="M1.297.034H59.39v18.654h-2.443V2.494H2.52V57.47h54.428V36.655h2.443V59.93H.076V.034h1.221z" fill="#FFCF10"/></symbol><symbol fill="none" viewBox="0 0 40 40" id="phone" xmlns="http://www.w3.org/2000/svg"><rect width="40" height="40" rx="4" fill="#2F80ED"/><path d="M23.842 28.992a5.789 5.789 0 01-4.121-1.706l-7.21-7.21a5.788 5.788 0 01-1.707-4.121c0-1.556.606-3.02 1.706-4.12.694-.694 1.372-1.03 2.075-1.03 1.234 0 2.21 1.026 3.342 2.216.25.263.511.537.787.813.046.046.458.48.458 1.273 0 .79-.665 1.48-.742 1.555a2.205 2.205 0 00-.372 2.617c.267.33 2.254 2.28 2.614 2.537.282.127.595.195.906.195.588 0 1.14-.23 1.556-.645.076-.075.764-.741 1.556-.741s1.226.411 1.273.458c.275.275.549.536.812.786 1.181 1.124 2.202 2.094 2.217 3.316.009.712-.328 1.4-1.03 2.101a5.789 5.789 0 01-4.12 1.706zm-9.257-16.988c-.369 0-.77.222-1.226.678a4.597 4.597 0 00-1.355 3.272c0 1.236.481 2.398 1.355 3.273l7.21 7.21a4.597 4.597 0 003.273 1.355 4.597 4.597 0 003.272-1.355c.461-.46.683-.866.678-1.237-.008-.717-.859-1.525-1.843-2.462-.27-.257-.552-.525-.834-.807-.002 0-.145-.107-.425-.107-.211 0-.548.233-.708.391-.64.641-1.494.995-2.403.995-.495 0-.993-.11-1.441-.32-.45-.21-2.95-2.716-3.108-2.993a3.407 3.407 0 01.552-4.084c.157-.16.39-.496.39-.708 0-.291-.118-.434-.122-.44-.267-.266-.535-.548-.792-.818-.941-.989-1.754-1.843-2.473-1.843z" fill="#fff"/></symbol><symbol fill="none" viewBox="0 0 40 40" id="phone_rings" xmlns="http://www.w3.org/2000/svg"><path d="M32.44 25.36l-.04-.04-3-1.88c-.84-.6-1.76-.76-2.72-.48-1.12.32-2.08 1.32-2.56 2.6-.28.8-.76 1.08-1.6.96-3.08-.4-8.32-5.92-8.64-9.08-.08-.88.2-1.36 1-1.6 1.12-.44 1.92-1.24 2.24-2.24.28-1 .08-2.04-.6-3l-1.88-3-.04-.04c-.92-1.24-1.88-1.88-3.04-1.96-1.44-.12-3 .68-4.72 2.4-4.12 4.12-.6 13.88 5.32 19.8 4.12 4.12 10.12 7.12 14.8 7.12 1.92 0 3.6-.52 4.84-1.64.08-.04.16-.08.2-.16 1.72-1.72 2.52-3.28 2.4-4.72-.08-1.16-.72-2.16-1.96-3.04zm-1.48 6.48c-.04.04-.12.08-.16.12-3.16 3.16-11.68.56-17.56-5.32C7.4 20.8 4.84 12.28 8 9.12c1.36-1.36 2.52-2.04 3.48-1.96.64.04 1.24.48 1.84 1.28l1.88 3 .04.04c.4.52.52 1.12.36 1.64-.16.52-.6.96-1.28 1.2-1.44.48-2.2 1.68-2.04 3.28.4 3.92 6.2 10 10.04 10.52.16.04.36.04.52.04 1.32 0 2.32-.72 2.8-2 .32-.8.88-1.44 1.52-1.64.44-.12.88-.04 1.32.28l.04.04 3 1.88c.84.6 1.24 1.2 1.28 1.84.08.84-.56 1.96-1.84 3.28zM20.44 5.12c-.44 0-.8.36-.8.8 0 .44.36.8.8.8 7.12 0 12.92 5.8 12.92 12.92 0 .44.36.8.8.8.44 0 .8-.36.8-.8 0-8.04-6.52-14.52-14.52-14.52z" fill="#2F80ED"/><path d="M20.44 9.96c5.32 0 9.68 4.32 9.68 9.68 0 .44.36.8.8.8.44 0 .8-.36.8-.8 0-6.2-5.04-11.28-11.28-11.28-.44 0-.8.36-.8.8 0 .44.36.8.8.8z" fill="#2F80ED"/><path d="M20.44 13.28c3.52 0 6.36 2.84 6.36 6.32 0 .44.36.8.8.8.44 0 .8-.36.8-.8 0-4.4-3.56-7.96-7.96-7.96-.44 0-.8.36-.8.8 0 .48.36.84.8.84z" fill="#2F80ED"/></symbol><symbol fill="none" viewBox="0 0 44 34" id="play" xmlns="http://www.w3.org/2000/svg"><path d="M9.5.5C4.263.5 0 4.763 0 10v14c0 5.237 4.263 9.5 9.5 9.5h25c5.237 0 9.5-4.263 9.5-9.5V10C44 4.763 39.737.5 34.5.5h-25zm0 3h25c3.627 0 6.5 2.873 6.5 6.5v14c0 3.627-2.873 6.5-6.5 6.5h-25A6.453 6.453 0 013 24V10c0-3.627 2.873-6.5 6.5-6.5zm8.016 4.922c-.752-.005-1.44.75-1.438 1.578v14a1.628 1.628 0 000 .156c.05.517.349.997.768 1.234.42.237.947.226 1.357-.03l11.016-7c.434-.275.72-.816.72-1.368 0-.552-.286-1.093-.72-1.367l-11.016-7c-.209-.13-.448-.2-.687-.203zm1.422 4.297L25.64 17l-6.703 4.266v-8.547z" fill="#fff"/></symbol><symbol fill="none" viewBox="0 0 40 40" id="question" xmlns="http://www.w3.org/2000/svg"><circle cx="20" cy="20" r="19" stroke="#2F80ED" stroke-width="2"/><path d="M15.184 15.852c-.024-1.258.418-2.266 1.324-3.024.906-.758 2.062-1.137 3.469-1.137 1.539 0 2.734.395 3.585 1.184.852.781 1.278 1.875 1.278 3.281 0 1.008-.277 1.93-.832 2.766-.547.836-1.274 1.691-2.18 2.566-.414.422-.668.801-.762 1.137-.085.336-.128.86-.128 1.57h-2.31c.009-1.14.102-1.925.282-2.355.188-.438.68-1.016 1.477-1.735.773-.914 1.324-1.617 1.652-2.109.328-.492.492-1.086.492-1.781 0-.828-.222-1.465-.668-1.91-.437-.446-1.066-.668-1.886-.668-.711 0-1.317.195-1.817.586-.492.382-.738.949-.738 1.699h-2.203l-.035-.07zM18.605 29v-2.438h2.403V29h-2.402z" fill="#2F80ED"/></symbol><symbol fill="none" viewBox="0 0 40 40" id="star" xmlns="http://www.w3.org/2000/svg"><path d="M25.56 22.32l4.08-3.52c.44-.4.6-1 .44-1.56-.2-.56-.68-.96-1.28-1l-5.32-.44-2.08-4.96c-.24-.56-.76-.88-1.36-.88-.6 0-1.12.36-1.36.88L16.6 15.8l-5.32.44c-.6.04-1.08.44-1.28 1-.2.56 0 1.16.44 1.56l4.08 3.48-1.24 5.2c-.12.56.08 1.16.56 1.52.48.36 1.12.36 1.6.08l4.56-2.8 4.56 2.8c.24.16.48.2.76.2.32 0 .6-.08.84-.28.48-.36.68-.96.56-1.52l-1.16-5.16zm-1.12-1.16c-.4.36-.6.92-.48 1.44l1.16 4.96-4.32-2.68c-.24-.16-.48-.2-.76-.2s-.52.08-.76.2l-4.36 2.64 1.16-4.96c.12-.52-.04-1.08-.48-1.44l-3.88-3.32 5.08-.4c.56-.04 1-.4 1.24-.88L20 11.8l2 4.72c.2.52.68.84 1.24.88l5.08.4-3.88 3.36zM20.04 6.32c.44 0 .8-.36.8-.8V1.8c0-.44-.36-.8-.8-.8-.44 0-.8.36-.8.8v3.72c0 .44.36.8.8.8zM9.2 10.28c.16.16.36.24.56.24.2 0 .4-.08.56-.24.32-.32.32-.84 0-1.12l-2.6-2.6c-.32-.32-.84-.32-1.12 0-.32.32-.32.84 0 1.12l2.6 2.6zM5.52 19.16H1.8c-.44 0-.8.36-.8.8 0 .44.36.8.8.8h3.72c.44 0 .8-.36.8-.8 0-.44-.36-.8-.8-.8zM9.16 29.64l-2.6 2.6c-.32.32-.32.84 0 1.12.16.16.36.24.56.24.2 0 .4-.08.56-.24l2.6-2.6c.32-.32.32-.84 0-1.12-.32-.32-.84-.32-1.12 0zM19.96 33.68c-.44 0-.8.36-.8.8v3.72c0 .44.36.8.8.8.44 0 .8-.36.8-.8v-3.72c0-.44-.36-.8-.8-.8zM30.8 29.72c-.32-.32-.84-.32-1.12 0-.32.32-.32.84 0 1.12l2.6 2.6c.16.16.36.24.56.24.2 0 .4-.08.56-.24.32-.32.32-.84 0-1.12l-2.6-2.6zM38.2 19.24h-3.72c-.44 0-.8.36-.8.8 0 .44.36.8.8.8h3.72c.44 0 .8-.36.8-.8 0-.44-.36-.8-.8-.8zM30.28 10.6c.2 0 .4-.08.56-.24l2.6-2.6c.32-.32.32-.84 0-1.12-.32-.32-.84-.32-1.12 0l-2.6 2.56c-.32.32-.32.84 0 1.12.16.2.36.28.56.28z" fill="#2F80ED"/></symbol><symbol fill="none" viewBox="0 0 32 32" id="timer" xmlns="http://www.w3.org/2000/svg"><path d="M16 10.4a.8.8 0 00-.8.8v8a.8.8 0 001.6 0v-8a.8.8 0 00-.8-.8z" fill="#2F80ED"/><path d="M25.586 10.746l2.18-2.18a.8.8 0 00-1.13-1.13l-2.182 2.178A12.744 12.744 0 0016.8 6.44V1.6h4a.8.8 0 000-1.6h-9.6a.8.8 0 000 1.6h4v4.84c-6.685.416-12 5.971-12 12.76C3.2 26.258 8.942 32 16 32c7.058 0 12.8-5.742 12.8-12.8 0-3.242-1.22-6.197-3.214-8.454zM16 30.4c-6.176 0-11.2-5.026-11.2-11.2C4.8 13.026 9.824 8 16 8c6.176 0 11.2 5.026 11.2 11.2 0 6.174-5.024 11.2-11.2 11.2z" fill="#2F80ED"/></symbol></svg>